<svg version="1.1" id="Layer_1" xmlns="http://www.w3.org/2000/svg" xmlns:xlink="http://www.w3.org/1999/xlink" x="0px" y="0px"
	 width="100%" viewBox="0 0 600 600" enable-background="new 0 0 600 600" xml:space="preserve">
<path fill="#FF0000" opacity="1.000000" stroke="none" 
	d="
M1.000001,325.000000 
	C1.000000,309.312439 1.000000,293.624878 1.396037,277.296021 
	C2.526274,270.159454 2.815167,263.575684 4.084179,257.186615 
	C7.039778,242.306107 9.878506,227.359863 13.841289,212.731934 
	C19.817284,190.672562 29.080648,169.823105 41.095188,150.414032 
	C49.853779,136.264832 59.173759,122.339531 69.535034,109.344185 
	C78.207504,98.466972 88.527161,88.851265 98.544846,79.116814 
	C105.108360,72.738876 112.133835,66.742119 119.475647,61.277637 
	C138.846558,46.859951 159.510712,34.548290 181.759689,25.043671 
	C208.361496,13.679540 235.911423,5.843701 264.784576,2.961227 
	C268.880798,2.552290 272.929382,1.665579 277.000000,1.000000 
	C292.687561,1.000000 308.375122,1.000000 324.703979,1.396037 
	C331.840576,2.526274 338.424316,2.815148 344.813416,4.084171 
	C359.693909,7.039771 374.640137,9.878551 389.268097,13.841311 
	C411.327454,19.817272 432.176910,29.080647 451.585938,41.095161 
	C465.735138,49.853737 479.660431,59.173737 492.655792,69.535004 
	C503.532990,78.207481 513.148682,88.527138 522.883118,98.544807 
	C529.261047,105.108322 535.257874,112.133789 540.722351,119.475594 
	C555.140076,138.846466 567.451721,159.510651 576.956421,181.759628 
	C588.320496,208.361435 596.156311,235.911392 599.038757,264.784546 
	C599.447693,268.880798 600.334412,272.929352 601.000000,277.000000 
	C601.000000,292.687561 601.000000,308.375122 600.603943,324.703979 
	C599.473633,331.840576 599.184814,338.424347 597.915771,344.813416 
	C594.960205,359.693909 592.121521,374.640198 588.158691,389.268127 
	C582.182739,411.327484 572.919373,432.176941 560.904785,451.586029 
	C552.146179,465.735199 542.826294,479.660492 532.465027,492.655823 
	C523.792480,503.533051 513.472961,513.148804 503.455231,522.883240 
	C496.891724,529.261169 489.866241,535.257874 482.524414,540.722351 
	C463.153534,555.140015 442.489380,567.451721 420.240417,576.956360 
	C393.638611,588.320496 366.088623,596.156372 337.215454,599.038757 
	C333.119202,599.447693 329.070648,600.334412 325.000000,601.000000 
	C309.312439,601.000000 293.624878,601.000000 277.296021,600.604004 
	C270.159485,599.473694 263.575867,599.184692 257.186798,597.915771 
	C242.306335,594.960144 227.359970,592.121826 212.732117,588.158813 
	C190.672882,582.182556 169.823120,572.919739 150.414139,560.904907 
	C136.265015,552.146118 122.339630,542.826233 109.344254,532.464966 
	C98.467056,523.792480 88.851288,513.472900 79.116821,503.455200 
	C72.738846,496.891724 66.742134,489.866180 61.277618,482.524414 
	C46.859943,463.153503 34.548294,442.489319 25.043665,420.240326 
	C13.679553,393.638519 5.843694,366.088562 2.961232,337.215424 
	C2.552293,333.119202 1.665581,329.070618 1.000001,325.000000 
M164.033752,241.719696 
	C172.240524,242.468018 180.528824,244.337311 188.638245,243.747360 
	C210.063416,242.188736 225.407379,225.853134 222.796494,205.190948 
	C221.236557,192.845886 219.991547,180.162384 216.050034,168.494049 
	C211.336487,154.540253 216.507034,146.058960 227.138962,138.757172 
	C230.016037,136.781281 232.852402,134.695602 235.917496,133.052017 
	C261.791840,119.177528 289.108246,115.975410 317.130035,124.303085 
	C344.846405,132.539993 363.441742,150.595276 368.003906,179.922470 
	C370.185272,193.945084 370.067505,208.423096 369.947784,222.686081 
	C369.678101,254.806931 356.761871,281.448151 331.455963,300.951996 
	C316.517090,312.465759 300.130707,322.291473 283.677673,331.609192 
	C253.866547,348.491943 223.267044,364.010529 195.306198,383.992981 
	C176.464981,397.458038 157.640137,410.983643 141.646713,427.901459 
	C139.848404,429.803680 138.690155,433.050812 138.614441,435.713501 
	C138.287674,447.203094 138.474670,458.707306 138.474655,470.206177 
	C138.474655,472.988586 138.474655,475.771027 138.474655,478.488434 
	C248.376358,478.488434 357.606628,478.488434 466.689392,478.488434 
	C466.689392,457.723969 466.689392,437.311523 466.689392,416.463135 
	C377.155121,416.463135 287.978027,416.463135 197.850418,416.463135 
	C200.022797,414.668152 201.380096,413.474823 202.809998,412.375977 
	C221.361145,398.119873 241.511581,386.367065 262.450867,376.166748 
	C294.267487,360.667664 326.513824,346.050385 358.585297,331.074982 
	C376.740692,322.597534 393.655640,312.289612 409.473541,299.827301 
	C453.402191,265.217743 456.135223,199.496902 439.677429,164.028793 
	C426.557770,135.754593 403.851746,117.584290 375.734314,106.097816 
	C337.107513,90.318062 296.830383,87.578888 256.031342,94.731789 
	C223.527679,100.430321 194.377289,113.725830 171.231201,138.006699 
	C153.045120,157.084381 140.864670,178.962799 143.069763,206.444412 
	C144.249451,221.146729 148.949142,234.161316 164.033752,241.719696 
z"/>
<path fill="#FFFFFF" opacity="1.000000" stroke="none" 
	d="
M276.531342,1.000000 
	C272.929382,1.665579 268.880798,2.552290 264.784576,2.961227 
	C235.911423,5.843701 208.361496,13.679540 181.759689,25.043671 
	C159.510712,34.548290 138.846558,46.859951 119.475647,61.277637 
	C112.133835,66.742119 105.108360,72.738876 98.544846,79.116814 
	C88.527161,88.851265 78.207504,98.466972 69.535034,109.344185 
	C59.173759,122.339531 49.853779,136.264832 41.095188,150.414032 
	C29.080648,169.823105 19.817284,190.672562 13.841289,212.731934 
	C9.878506,227.359863 7.039778,242.306107 4.084179,257.186615 
	C2.815167,263.575684 2.526274,270.159454 1.396037,276.827393 
	C1.000000,185.072937 1.000000,93.145889 1.000000,1.000000 
	C92.687447,1.000000 184.375061,1.000000 276.531342,1.000000 
z"/>
<path fill="#FFFFFF" opacity="1.000000" stroke="none" 
	d="
M601.000000,276.531342 
	C600.334412,272.929352 599.447693,268.880798 599.038757,264.784546 
	C596.156311,235.911392 588.320496,208.361435 576.956421,181.759628 
	C567.451721,159.510651 555.140076,138.846466 540.722351,119.475594 
	C535.257874,112.133789 529.261047,105.108322 522.883118,98.544807 
	C513.148682,88.527138 503.532990,78.207481 492.655792,69.535004 
	C479.660431,59.173737 465.735138,49.853737 451.585938,41.095161 
	C432.176910,29.080647 411.327454,19.817272 389.268097,13.841311 
	C374.640137,9.878551 359.693909,7.039771 344.813416,4.084171 
	C338.424316,2.815148 331.840576,2.526274 325.172607,1.396037 
	C416.927032,1.000000 508.854095,1.000000 601.000000,1.000000 
	C601.000000,92.687447 601.000000,184.375061 601.000000,276.531342 
z"/>
<path fill="#FFFFFF" opacity="1.000000" stroke="none" 
	d="
M1.000001,325.468658 
	C1.665581,329.070618 2.552293,333.119202 2.961232,337.215424 
	C5.843694,366.088562 13.679553,393.638519 25.043665,420.240326 
	C34.548294,442.489319 46.859943,463.153503 61.277618,482.524414 
	C66.742134,489.866180 72.738846,496.891724 79.116821,503.455200 
	C88.851288,513.472900 98.467056,523.792480 109.344254,532.464966 
	C122.339630,542.826233 136.265015,552.146118 150.414139,560.904907 
	C169.823120,572.919739 190.672882,582.182556 212.732117,588.158813 
	C227.359970,592.121826 242.306335,594.960144 257.186798,597.915771 
	C263.575867,599.184692 270.159485,599.473694 276.827362,600.604004 
	C185.072937,601.000000 93.145889,601.000000 1.000000,601.000000 
	C1.000000,509.312561 1.000000,417.624939 1.000001,325.468658 
z"/>
<path fill="#FFFFFF" opacity="1.000000" stroke="none" 
	d="
M325.468658,601.000000 
	C329.070648,600.334412 333.119202,599.447693 337.215454,599.038757 
	C366.088623,596.156372 393.638611,588.320496 420.240417,576.956360 
	C442.489380,567.451721 463.153534,555.140015 482.524414,540.722351 
	C489.866241,535.257874 496.891724,529.261169 503.455231,522.883240 
	C513.472961,513.148804 523.792480,503.533051 532.465027,492.655823 
	C542.826294,479.660492 552.146179,465.735199 560.904785,451.586029 
	C572.919373,432.176941 582.182739,411.327484 588.158691,389.268127 
	C592.121521,374.640198 594.960205,359.693909 597.915771,344.813416 
	C599.184814,338.424347 599.473633,331.840576 600.603943,325.172638 
	C601.000000,416.927063 601.000000,508.854126 601.000000,601.000000 
	C509.312561,601.000000 417.624939,601.000000 325.468658,601.000000 
z"/>
<path fill="#FFFEFE" opacity="1.000000" stroke="none" 
	d="
M163.700439,241.527832 
	C148.949142,234.161316 144.249451,221.146729 143.069763,206.444412 
	C140.864670,178.962799 153.045120,157.084381 171.231201,138.006699 
	C194.377289,113.725830 223.527679,100.430321 256.031342,94.731789 
	C296.830383,87.578888 337.107513,90.318062 375.734314,106.097816 
	C403.851746,117.584290 426.557770,135.754593 439.677429,164.028793 
	C456.135223,199.496902 453.402191,265.217743 409.473541,299.827301 
	C393.655640,312.289612 376.740692,322.597534 358.585297,331.074982 
	C326.513824,346.050385 294.267487,360.667664 262.450867,376.166748 
	C241.511581,386.367065 221.361145,398.119873 202.809998,412.375977 
	C201.380096,413.474823 200.022797,414.668152 197.850418,416.463135 
	C287.978027,416.463135 377.155121,416.463135 466.689392,416.463135 
	C466.689392,437.311523 466.689392,457.723969 466.689392,478.488434 
	C357.606628,478.488434 248.376358,478.488434 138.474655,478.488434 
	C138.474655,475.771027 138.474655,472.988586 138.474655,470.206177 
	C138.474670,458.707306 138.287674,447.203094 138.614441,435.713501 
	C138.690155,433.050812 139.848404,429.803680 141.646713,427.901459 
	C157.640137,410.983643 176.464981,397.458038 195.306198,383.992981 
	C223.267044,364.010529 253.866547,348.491943 283.677673,331.609192 
	C300.130707,322.291473 316.517090,312.465759 331.455963,300.951996 
	C356.761871,281.448151 369.678101,254.806931 369.947784,222.686081 
	C370.067505,208.423096 370.185272,193.945084 368.003906,179.922470 
	C363.441742,150.595276 344.846405,132.539993 317.130035,124.303085 
	C289.108246,115.975410 261.791840,119.177528 235.917496,133.052017 
	C232.852402,134.695602 230.016037,136.781281 227.138962,138.757172 
	C216.507034,146.058960 211.336487,154.540253 216.050034,168.494049 
	C219.991547,180.162384 221.236557,192.845886 222.796494,205.190948 
	C225.407379,225.853134 210.063416,242.188736 188.638245,243.747360 
	C180.528824,244.337311 172.240524,242.468018 163.700439,241.527832 
z"/>
</svg>