<svg version="1.1" id="Layer_1" xmlns="http://www.w3.org/2000/svg" xmlns:xlink="http://www.w3.org/1999/xlink" x="0px" y="0px"
	 width="100%" viewBox="0 0 600 600" enable-background="new 0 0 600 600" xml:space="preserve">
<path fill="#FF0000" opacity="1.000000" stroke="none" 
	d="
M1.000000,325.000000 
	C1.000000,309.312439 1.000000,293.624878 1.396046,277.296082 
	C2.526308,270.159546 2.815237,263.575836 4.084248,257.186768 
	C7.039836,242.306259 9.878454,227.359955 13.841318,212.732056 
	C19.817432,190.672760 29.080551,169.823212 41.095207,150.414169 
	C49.853889,136.265015 59.173759,122.339653 69.535019,109.344292 
	C78.207489,98.467056 88.527161,88.851341 98.544861,79.116882 
	C105.108376,72.738945 112.133858,66.742172 119.475670,61.277687 
	C138.846573,46.859993 159.510742,34.548347 181.759720,25.043722 
	C208.361542,13.679598 235.911484,5.843760 264.784637,2.961292 
	C268.880859,2.552355 272.929382,1.665601 277.000000,1.000000 
	C292.687561,1.000000 308.375122,1.000000 324.703918,1.396046 
	C331.840454,2.526308 338.424164,2.815228 344.813232,4.084237 
	C359.693726,7.039835 374.640045,9.878466 389.267975,13.841316 
	C411.327240,19.817406 432.176819,29.080578 451.585846,41.095219 
	C465.734985,49.853893 479.660339,59.173744 492.655701,69.535004 
	C503.532898,78.207481 513.148621,88.527138 522.883057,98.544838 
	C529.260986,105.108360 535.257751,112.133850 540.722290,119.475655 
	C555.140015,138.846497 567.451599,159.510712 576.956238,181.759644 
	C588.320435,208.361465 596.156311,235.911423 599.038696,264.784607 
	C599.447632,268.880829 600.334412,272.929382 601.000000,277.000000 
	C601.000000,292.687561 601.000000,308.375122 600.604004,324.703918 
	C599.473694,331.840424 599.184753,338.424103 597.915710,344.813171 
	C594.960083,359.693665 592.121643,374.640045 588.158691,389.267944 
	C582.182495,411.327148 572.919556,432.176758 560.904663,451.585663 
	C552.145935,465.734741 542.826233,479.660248 532.464966,492.655640 
	C523.792542,503.532867 513.472900,513.148621 503.455231,522.883057 
	C496.891754,529.261047 489.866180,535.257751 482.524414,540.722229 
	C463.153534,555.140015 442.489319,567.451660 420.240326,576.956238 
	C393.638519,588.320374 366.088562,596.156311 337.215393,599.038696 
	C333.119171,599.447632 329.070618,600.334351 325.000000,601.000000 
	C309.312439,601.000000 293.624878,601.000000 277.296082,600.603943 
	C270.159546,599.473633 263.575806,599.184692 257.186707,597.915710 
	C242.306183,594.960083 227.359909,592.121338 212.731949,588.158630 
	C190.672607,582.182617 169.823166,572.919250 150.414093,560.904724 
	C136.264923,552.146118 122.339615,542.826111 109.344246,532.464905 
	C98.467026,523.792480 88.851311,513.472839 79.116844,503.455109 
	C72.738930,496.891571 66.742180,489.866089 61.277679,482.524292 
	C46.859943,463.153412 34.548332,442.489227 25.043726,420.240265 
	C13.679575,393.638458 5.843760,366.088501 2.961293,337.215363 
	C2.552354,333.119141 1.665601,329.070618 1.000000,325.000000 
M269.753662,75.076675 
	C241.785660,81.171883 215.915817,92.234604 192.673691,108.904915 
	C186.865082,113.071114 181.705841,118.767311 177.746597,124.751671 
	C170.466888,135.754868 172.992249,150.360718 182.796783,159.864624 
	C190.104172,166.947968 202.044098,172.055252 215.602219,163.261078 
	C224.395172,157.557739 233.613434,152.487396 242.224625,146.531250 
	C260.128510,134.147568 279.883362,129.473770 301.362762,131.089844 
	C319.359558,132.443893 336.675354,136.034744 351.485016,147.181808 
	C380.554321,169.061966 379.278595,211.943146 348.665497,231.433548 
	C341.630829,235.912277 333.553925,239.227280 325.515656,241.554840 
	C310.197388,245.990387 294.529694,249.204681 279.067780,253.163177 
	C267.523590,256.118683 255.543945,257.830200 245.395477,264.946899 
	C237.060318,270.791962 232.612335,278.319000 233.960312,288.716217 
	C235.268646,298.807739 241.498108,304.963837 250.676392,307.872620 
	C257.120361,309.914825 263.924377,311.037354 270.652710,311.926605 
	C293.658234,314.967133 315.755646,320.742249 335.336304,333.682953 
	C367.251740,354.775635 380.673218,384.946259 375.735504,422.436035 
	C372.409882,447.685730 355.423584,463.703949 333.728455,474.849396 
	C312.601410,485.702972 290.127747,485.535095 267.397095,481.391724 
	C245.603928,477.419281 228.445786,466.607849 217.004623,447.279236 
	C214.549377,443.131378 211.763351,439.170593 208.988846,435.222595 
	C205.042221,429.606689 200.025986,425.302826 193.107605,423.934875 
	C181.639542,421.667328 171.984314,425.432281 164.291016,433.839203 
	C156.914185,441.900208 156.316086,451.516632 159.795944,461.437653 
	C168.230759,485.485077 183.895554,503.719452 205.308304,517.199280 
	C230.354370,532.966370 258.049164,539.729614 287.294556,540.827881 
	C313.892212,541.826660 339.617798,537.618835 362.832794,524.092651 
	C412.564575,495.116425 437.938385,451.999603 436.073181,393.876953 
	C434.423065,342.455170 410.538269,306.164032 362.369110,286.630585 
	C361.094635,286.113831 359.893005,285.417389 358.168060,284.562134 
	C360.256836,283.867767 361.679047,283.413788 363.088654,282.923615 
	C390.200287,273.496582 410.325409,256.718842 419.634583,228.761703 
	C425.298431,211.752121 426.437317,194.210922 425.040771,176.449722 
	C422.551788,144.795013 409.462982,118.716171 383.141907,100.437553 
	C349.198517,76.865654 310.781403,71.760864 269.753662,75.076675 
z"/>
<path fill="#FFFFFF" opacity="1.000000" stroke="none" 
	d="
M276.531342,1.000000 
	C272.929382,1.665601 268.880859,2.552355 264.784637,2.961292 
	C235.911484,5.843760 208.361542,13.679598 181.759720,25.043722 
	C159.510742,34.548347 138.846573,46.859993 119.475670,61.277687 
	C112.133858,66.742172 105.108376,72.738945 98.544861,79.116882 
	C88.527161,88.851341 78.207489,98.467056 69.535019,109.344292 
	C59.173759,122.339653 49.853889,136.265015 41.095207,150.414169 
	C29.080551,169.823212 19.817432,190.672760 13.841318,212.732056 
	C9.878454,227.359955 7.039836,242.306259 4.084248,257.186768 
	C2.815237,263.575836 2.526308,270.159546 1.396046,276.827423 
	C1.000000,185.072937 1.000000,93.145889 1.000000,1.000000 
	C92.687447,1.000000 184.375061,1.000000 276.531342,1.000000 
z"/>
<path fill="#FFFFFF" opacity="1.000000" stroke="none" 
	d="
M601.000000,276.531342 
	C600.334412,272.929382 599.447632,268.880829 599.038696,264.784607 
	C596.156311,235.911423 588.320435,208.361465 576.956238,181.759644 
	C567.451599,159.510712 555.140015,138.846497 540.722290,119.475655 
	C535.257751,112.133850 529.260986,105.108360 522.883057,98.544838 
	C513.148621,88.527138 503.532898,78.207481 492.655701,69.535004 
	C479.660339,59.173744 465.734985,49.853893 451.585846,41.095219 
	C432.176819,29.080578 411.327240,19.817406 389.267975,13.841316 
	C374.640045,9.878466 359.693726,7.039835 344.813232,4.084237 
	C338.424164,2.815228 331.840454,2.526308 325.172577,1.396046 
	C416.927032,1.000000 508.854095,1.000000 601.000000,1.000000 
	C601.000000,92.687447 601.000000,184.375061 601.000000,276.531342 
z"/>
<path fill="#FFFFFF" opacity="1.000000" stroke="none" 
	d="
M1.000000,325.468658 
	C1.665601,329.070618 2.552354,333.119141 2.961293,337.215363 
	C5.843760,366.088501 13.679575,393.638458 25.043726,420.240265 
	C34.548332,442.489227 46.859943,463.153412 61.277679,482.524292 
	C66.742180,489.866089 72.738930,496.891571 79.116844,503.455109 
	C88.851311,513.472839 98.467026,523.792480 109.344246,532.464905 
	C122.339615,542.826111 136.264923,552.146118 150.414093,560.904724 
	C169.823166,572.919250 190.672607,582.182617 212.731949,588.158630 
	C227.359909,592.121338 242.306183,594.960083 257.186707,597.915710 
	C263.575806,599.184692 270.159546,599.473633 276.827423,600.603943 
	C185.072937,601.000000 93.145889,601.000000 1.000000,601.000000 
	C1.000000,509.312561 1.000000,417.624939 1.000000,325.468658 
z"/>
<path fill="#FFFFFF" opacity="1.000000" stroke="none" 
	d="
M325.468658,601.000000 
	C329.070618,600.334351 333.119171,599.447632 337.215393,599.038696 
	C366.088562,596.156311 393.638519,588.320374 420.240326,576.956238 
	C442.489319,567.451660 463.153534,555.140015 482.524414,540.722229 
	C489.866180,535.257751 496.891754,529.261047 503.455231,522.883057 
	C513.472900,513.148621 523.792542,503.532867 532.464966,492.655640 
	C542.826233,479.660248 552.145935,465.734741 560.904663,451.585663 
	C572.919556,432.176758 582.182495,411.327148 588.158691,389.267944 
	C592.121643,374.640045 594.960083,359.693665 597.915710,344.813171 
	C599.184753,338.424103 599.473694,331.840424 600.604004,325.172577 
	C601.000000,416.927063 601.000000,508.854126 601.000000,601.000000 
	C509.312561,601.000000 417.624939,601.000000 325.468658,601.000000 
z"/>
<path fill="#FFFEFE" opacity="1.000000" stroke="none" 
	d="
M270.188690,75.028427 
	C310.781403,71.760864 349.198517,76.865654 383.141907,100.437553 
	C409.462982,118.716171 422.551788,144.795013 425.040771,176.449722 
	C426.437317,194.210922 425.298431,211.752121 419.634583,228.761703 
	C410.325409,256.718842 390.200287,273.496582 363.088654,282.923615 
	C361.679047,283.413788 360.256836,283.867767 358.168060,284.562134 
	C359.893005,285.417389 361.094635,286.113831 362.369110,286.630585 
	C410.538269,306.164032 434.423065,342.455170 436.073181,393.876953 
	C437.938385,451.999603 412.564575,495.116425 362.832794,524.092651 
	C339.617798,537.618835 313.892212,541.826660 287.294556,540.827881 
	C258.049164,539.729614 230.354370,532.966370 205.308304,517.199280 
	C183.895554,503.719452 168.230759,485.485077 159.795944,461.437653 
	C156.316086,451.516632 156.914185,441.900208 164.291016,433.839203 
	C171.984314,425.432281 181.639542,421.667328 193.107605,423.934875 
	C200.025986,425.302826 205.042221,429.606689 208.988846,435.222595 
	C211.763351,439.170593 214.549377,443.131378 217.004623,447.279236 
	C228.445786,466.607849 245.603928,477.419281 267.397095,481.391724 
	C290.127747,485.535095 312.601410,485.702972 333.728455,474.849396 
	C355.423584,463.703949 372.409882,447.685730 375.735504,422.436035 
	C380.673218,384.946259 367.251740,354.775635 335.336304,333.682953 
	C315.755646,320.742249 293.658234,314.967133 270.652710,311.926605 
	C263.924377,311.037354 257.120361,309.914825 250.676392,307.872620 
	C241.498108,304.963837 235.268646,298.807739 233.960312,288.716217 
	C232.612335,278.319000 237.060318,270.791962 245.395477,264.946899 
	C255.543945,257.830200 267.523590,256.118683 279.067780,253.163177 
	C294.529694,249.204681 310.197388,245.990387 325.515656,241.554840 
	C333.553925,239.227280 341.630829,235.912277 348.665497,231.433548 
	C379.278595,211.943146 380.554321,169.061966 351.485016,147.181808 
	C336.675354,136.034744 319.359558,132.443893 301.362762,131.089844 
	C279.883362,129.473770 260.128510,134.147568 242.224625,146.531250 
	C233.613434,152.487396 224.395172,157.557739 215.602219,163.261078 
	C202.044098,172.055252 190.104172,166.947968 182.796783,159.864624 
	C172.992249,150.360718 170.466888,135.754868 177.746597,124.751671 
	C181.705841,118.767311 186.865082,113.071114 192.673691,108.904915 
	C215.915817,92.234604 241.785660,81.171883 270.188690,75.028427 
z"/>
</svg>