<svg version="1.1" id="Layer_1" xmlns="http://www.w3.org/2000/svg" xmlns:xlink="http://www.w3.org/1999/xlink" x="0px" y="0px"
	 width="100%" viewBox="0 0 600 600" enable-background="new 0 0 600 600" xml:space="preserve">
<path fill="#FF0000" opacity="1.000000" stroke="none" 
	d="
M1.000000,325.000000 
	C1.000000,309.312439 1.000000,293.624878 1.396141,277.296204 
	C2.526546,270.159851 2.815562,263.576141 4.084566,257.187073 
	C7.040161,242.306580 9.878641,227.360214 13.841597,212.732330 
	C19.817820,190.673141 29.080629,169.823517 41.095478,150.414612 
	C49.854294,136.265533 59.173916,122.340019 69.535141,109.344650 
	C78.207626,98.467339 88.527351,88.851570 98.545113,79.117065 
	C105.108665,72.739113 112.134201,66.742371 119.476044,61.277859 
	C138.846909,46.860191 159.511063,34.548634 181.760010,25.044033 
	C208.361832,13.679897 235.911758,5.844053 264.784943,2.961601 
	C268.881073,2.552680 272.929504,1.665709 277.000000,0.999999 
	C292.687561,1.000000 308.375122,1.000000 324.703796,1.396141 
	C331.840179,2.526546 338.423920,2.815550 344.813019,4.084560 
	C359.693512,7.040166 374.639832,9.878745 389.267731,13.841632 
	C411.326965,19.817760 432.176483,29.080759 451.585388,41.095516 
	C465.734497,49.854279 479.659973,59.173908 492.655334,69.535118 
	C503.532623,78.207596 513.148376,88.527367 522.882874,98.545128 
	C529.260803,105.108681 535.257690,112.134209 540.722168,119.476059 
	C555.139832,138.846924 567.451294,159.511124 576.955933,181.760040 
	C588.320068,208.361877 596.155945,235.911804 599.038452,264.784973 
	C599.447388,268.881104 600.334351,272.929504 601.000000,277.000000 
	C601.000000,292.687561 601.000000,308.375122 600.603821,324.703766 
	C599.473389,331.840088 599.184265,338.423767 597.915222,344.812805 
	C594.959656,359.693329 592.121338,374.639709 588.158325,389.267548 
	C582.182007,411.326660 572.919495,432.176392 560.904480,451.585266 
	C552.145569,465.734314 542.826172,479.660004 532.464966,492.655396 
	C523.792419,503.532684 513.472656,513.148376 503.454895,522.882874 
	C496.891327,529.260864 489.865753,535.257568 482.523956,540.722107 
	C463.153076,555.139893 442.488831,567.451416 420.239838,576.955994 
	C393.638031,588.320129 366.088135,596.156006 337.215027,599.038391 
	C333.118896,599.447266 329.070496,600.334290 325.000000,601.000000 
	C309.312439,601.000000 293.624878,601.000000 277.296234,600.603882 
	C270.159882,599.473389 263.576172,599.184326 257.187103,597.915283 
	C242.306610,594.959717 227.360260,592.121216 212.732361,588.158264 
	C190.673157,582.182068 169.823532,572.919312 150.414597,560.904480 
	C136.265533,552.145691 122.339973,542.826111 109.344627,532.464844 
	C98.467308,523.792419 88.851532,513.472595 79.117012,503.454865 
	C72.739059,496.891327 66.742363,489.865753 61.277847,482.523895 
	C46.860222,463.153046 34.548630,442.488922 25.044031,420.239990 
	C13.679890,393.638153 5.844047,366.088226 2.961601,337.215057 
	C2.552682,333.118927 1.665712,329.070496 1.000000,325.000000 
M348.114380,300.500031 
	C348.668823,230.899536 349.223267,161.299042 349.781769,91.187851 
	C346.128235,91.187851 341.465546,91.569641 336.888092,91.107491 
	C327.672180,90.177032 321.005463,93.136711 313.650391,99.514252 
	C288.247711,121.540764 257.983734,132.949356 224.390961,134.905746 
	C213.799927,135.522537 203.142654,135.002014 192.391876,135.002014 
	C192.391876,145.525894 192.391876,155.079849 192.391876,165.020599 
	C221.463776,165.020599 250.229904,165.020599 279.422485,165.020599 
	C279.422485,167.027054 279.422516,168.648224 279.422485,170.269379 
	C279.422150,249.594711 279.425232,328.920044 279.408386,408.245392 
	C279.407776,411.242279 279.294312,414.244415 279.096802,417.235077 
	C278.028351,433.411682 269.618958,443.548584 253.720306,446.847229 
	C244.614334,448.736542 235.335541,449.895386 226.086151,450.964203 
	C215.363968,452.203247 204.588654,452.982727 193.952301,453.951172 
	C193.952301,462.449188 193.952301,470.533569 193.952301,478.540833 
	C272.732758,478.540833 351.154144,478.540833 429.646851,478.540833 
	C429.646851,470.176544 429.646851,462.115479 429.646851,454.014954 
	C428.525177,453.903107 427.698547,453.824829 426.872833,453.737701 
	C408.172577,451.764618 389.408600,450.055817 371.438507,444.032928 
	C361.351105,440.651978 354.226837,433.750183 351.120056,423.595062 
	C349.345978,417.796295 348.290527,411.545837 348.244263,405.488586 
	C347.979584,370.827423 348.114899,336.163239 348.114380,300.500031 
z"/>
<path fill="#FFFFFF" opacity="1.000000" stroke="none" 
	d="
M276.531342,0.999999 
	C272.929504,1.665709 268.881073,2.552680 264.784943,2.961601 
	C235.911758,5.844053 208.361832,13.679897 181.760010,25.044033 
	C159.511063,34.548634 138.846909,46.860191 119.476044,61.277859 
	C112.134201,66.742371 105.108665,72.739113 98.545113,79.117065 
	C88.527351,88.851570 78.207626,98.467339 69.535141,109.344650 
	C59.173916,122.340019 49.854294,136.265533 41.095478,150.414612 
	C29.080629,169.823517 19.817820,190.673141 13.841597,212.732330 
	C9.878641,227.360214 7.040161,242.306580 4.084566,257.187073 
	C2.815562,263.576141 2.526546,270.159851 1.396141,276.827576 
	C1.000000,185.072937 1.000000,93.145889 1.000000,1.000000 
	C92.687447,1.000000 184.375061,1.000000 276.531342,0.999999 
z"/>
<path fill="#FFFFFF" opacity="1.000000" stroke="none" 
	d="
M601.000000,276.531342 
	C600.334351,272.929504 599.447388,268.881104 599.038452,264.784973 
	C596.155945,235.911804 588.320068,208.361877 576.955933,181.760040 
	C567.451294,159.511124 555.139832,138.846924 540.722168,119.476059 
	C535.257690,112.134209 529.260803,105.108681 522.882874,98.545128 
	C513.148376,88.527367 503.532623,78.207596 492.655334,69.535118 
	C479.659973,59.173908 465.734497,49.854279 451.585388,41.095516 
	C432.176483,29.080759 411.326965,19.817760 389.267731,13.841632 
	C374.639832,9.878745 359.693512,7.040166 344.813019,4.084560 
	C338.423920,2.815550 331.840179,2.526546 325.172424,1.396141 
	C416.927032,1.000000 508.854095,1.000000 601.000000,1.000000 
	C601.000000,92.687447 601.000000,184.375061 601.000000,276.531342 
z"/>
<path fill="#FFFFFF" opacity="1.000000" stroke="none" 
	d="
M1.000000,325.468658 
	C1.665712,329.070496 2.552682,333.118927 2.961601,337.215057 
	C5.844047,366.088226 13.679890,393.638153 25.044031,420.239990 
	C34.548630,442.488922 46.860222,463.153046 61.277847,482.523895 
	C66.742363,489.865753 72.739059,496.891327 79.117012,503.454865 
	C88.851532,513.472595 98.467308,523.792419 109.344627,532.464844 
	C122.339973,542.826111 136.265533,552.145691 150.414597,560.904480 
	C169.823532,572.919312 190.673157,582.182068 212.732361,588.158264 
	C227.360260,592.121216 242.306610,594.959717 257.187103,597.915283 
	C263.576172,599.184326 270.159882,599.473389 276.827576,600.603882 
	C185.072937,601.000000 93.145889,601.000000 1.000000,601.000000 
	C1.000000,509.312561 1.000000,417.624939 1.000000,325.468658 
z"/>
<path fill="#FFFFFF" opacity="1.000000" stroke="none" 
	d="
M325.468658,601.000000 
	C329.070496,600.334290 333.118896,599.447266 337.215027,599.038391 
	C366.088135,596.156006 393.638031,588.320129 420.239838,576.955994 
	C442.488831,567.451416 463.153076,555.139893 482.523956,540.722107 
	C489.865753,535.257568 496.891327,529.260864 503.454895,522.882874 
	C513.472656,513.148376 523.792419,503.532684 532.464966,492.655396 
	C542.826172,479.660004 552.145569,465.734314 560.904480,451.585266 
	C572.919495,432.176392 582.182007,411.326660 588.158325,389.267548 
	C592.121338,374.639709 594.959656,359.693329 597.915222,344.812805 
	C599.184265,338.423767 599.473389,331.840088 600.603821,325.172424 
	C601.000000,416.927063 601.000000,508.854126 601.000000,601.000000 
	C509.312561,601.000000 417.624939,601.000000 325.468658,601.000000 
z"/>
<path fill="#FFFDFD" opacity="1.000000" stroke="none" 
	d="
M348.114380,301.000061 
	C348.114899,336.163239 347.979584,370.827423 348.244263,405.488586 
	C348.290527,411.545837 349.345978,417.796295 351.120056,423.595062 
	C354.226837,433.750183 361.351105,440.651978 371.438507,444.032928 
	C389.408600,450.055817 408.172577,451.764618 426.872833,453.737701 
	C427.698547,453.824829 428.525177,453.903107 429.646851,454.014954 
	C429.646851,462.115479 429.646851,470.176544 429.646851,478.540833 
	C351.154144,478.540833 272.732758,478.540833 193.952301,478.540833 
	C193.952301,470.533569 193.952301,462.449188 193.952301,453.951172 
	C204.588654,452.982727 215.363968,452.203247 226.086151,450.964203 
	C235.335541,449.895386 244.614334,448.736542 253.720306,446.847229 
	C269.618958,443.548584 278.028351,433.411682 279.096802,417.235077 
	C279.294312,414.244415 279.407776,411.242279 279.408386,408.245392 
	C279.425232,328.920044 279.422150,249.594711 279.422485,170.269379 
	C279.422516,168.648224 279.422485,167.027054 279.422485,165.020599 
	C250.229904,165.020599 221.463776,165.020599 192.391876,165.020599 
	C192.391876,155.079849 192.391876,145.525894 192.391876,135.002014 
	C203.142654,135.002014 213.799927,135.522537 224.390961,134.905746 
	C257.983734,132.949356 288.247711,121.540764 313.650391,99.514252 
	C321.005463,93.136711 327.672180,90.177032 336.888092,91.107491 
	C341.465546,91.569641 346.128235,91.187851 349.781769,91.187851 
	C349.223267,161.299042 348.668823,230.899536 348.114380,301.000061 
z"/>
</svg>